<svg id="Capa_1" data-name="Capa 1" xmlns="http://www.w3.org/2000/svg" width="8.89cm" height="8.89cm" viewBox="0 0 252.1 252.1"><path d="M197,146.8a12.57,12.57,0,0,0-3.3.5l-4.2,1.2-6.2-15.2c-3.5-8.5-13.8-15.4-23-15.4H91.8c-9.2,0-19.5,6.9-23,15.4l-6.2,15.1-4.1-1.1a12.57,12.57,0,0,0-3.3-.5,9.11,9.11,0,0,0-9.5,9.4,11.71,11.71,0,0,0,9.2,11.2c-2.9,8-5.2,20-5.2,27.9v32.3a12.5,12.5,0,0,0,12.5,12.5h4.6a12.5,12.5,0,0,0,12.5-12.5v-6h93.4v6a12.5,12.5,0,0,0,12.5,12.5h4.6a12.5,12.5,0,0,0,12.5-12.5V195.3c0-7.9-2.3-19.9-5.1-27.9,5.3-1.3,9.3-5.9,9.3-11.2A9.17,9.17,0,0,0,197,146.8ZM70.4,159.4l10.2-24.8c2.1-5.1,8.3-9.3,13.8-9.3h63.4c5.5,0,11.7,4.2,13.8,9.3l10.2,24.8c2.1,5.1-.7,9.3-6.2,9.3h-99C71.1,168.6,68.3,164.5,70.4,159.4Zm26.9,40.2a5,5,0,0,1-5,5H71.6a5,5,0,0,1-5-5v-8.3a5,5,0,0,1,5-5H92.3a5,5,0,0,1,5,5Zm87.9,0a5,5,0,0,1-5,5H159.5a5,5,0,0,1-5-5v-8.3a5,5,0,0,1,5-5h20.7a5,5,0,0,1,5,5Z" style="fill:#d57240"/><path d="M246.5,71.5,131.6,4.2a11.9,11.9,0,0,0-11.2,0L5.5,71.5A12,12,0,0,0,0,81.2V241.8a7.55,7.55,0,0,0,7.5,7.5H20.4a7.55,7.55,0,0,0,7.5-7.5V105.9a2.48,2.48,0,0,1,2.5-2.5H221.7a2.48,2.48,0,0,1,2.5,2.5V241.8a7.55,7.55,0,0,0,7.5,7.5h12.9a7.55,7.55,0,0,0,7.5-7.5V81.2A12.23,12.23,0,0,0,246.5,71.5Z" style="fill:#d57240"/></svg>