<svg xmlns="http://www.w3.org/2000/svg" width="365.84" height="492.14" viewBox="0 0 365.84 492.14">
  <title>dJP</title>
  <g id="ca07d660-6cdd-4c9a-9dd6-c359994d7b6e" data-name="Layer 1">
    <path d="M254.28,347.36a91.71,91.71,0,0,0,5.3-12.86l-42.89-5.3A195.63,195.63,0,0,0,226,352.15l-68.62,22.2-4.29-21.69-20.68,29.51q11.67,35.32,3.28,74.68,8.91-2.7,10.84-8.83-1.94,6.14-10.84,8.83-1.35,6.45-3.28,12.86c33.58-12.36,53.05-12.36,90.81,0q13.09-57.31,28-45.41,8,6.34,16.4,32.55,14.22-5.4,13.62-15.9.62,10.51-13.62,15.9,1.39,4,2.52,13.62h0c2-1.87,4-4.39,5.81-6.06,33.16-7.06,53.39-8.79,85.77,6.31C352.88,450.82,349,431.4,350.14,414A88.49,88.49,0,0,1,361,377.38l-28.51-27-2.77,17.66-75.43-20.69m83.25,82.49a43.2,43.2,0,0,0,8.83,19.68,43.2,43.2,0,0,1-8.83-19.68M213.16,449.53a90,90,0,0,1,5.55,7.82,90,90,0,0,0-5.55-7.82m28.76-86.28q6.08,19.85,0,36.08Q248,383.1,241.92,363.25Z" transform="translate(-67.02 -5.56)" style="fill: #036;stroke: #000;stroke-linecap: round;stroke-linejoin: round;stroke-width: 4px"/>
    <path d="M223.25,469.71a339.94,339.94,0,0,1-90.81,0v26h93.08l-2.27-26m47.43.25a2,2,0,0,1-.51-.25v26h91.58v-25Q312.94,478.19,270.68,470Z" transform="translate(-67.02 -5.56)" style="fill: #bed3e9;stroke: #000;stroke-linecap: round;stroke-linejoin: round;stroke-width: 4px"/>
    <path d="M223.25,469.71q-50.24-47.58-90.81,0a339.94,339.94,0,0,0,90.81,0m52.73-5.3q-2.78,2.5-5.81,5.3a2,2,0,0,0,.51.25q42.26,8.24,91.07.76Q318.61,427.63,276,464.41Z" transform="translate(-67.02 -5.56)" style="fill: #369;stroke: #000;stroke-linecap: round;stroke-linejoin: round;stroke-width: 4px"/>
    <path d="M208.87,224.76a172.88,172.88,0,0,1-28.5-6.31c-2.81-.95-5.58-2-8.33-3q-25.53-10.08-28.5-24,2.86,32.16,25,46.67a115.47,115.47,0,0,0,30,13.87q-4.74-12.51,10.34-27.24m-65.33-33.3L82.23,211.39q-42.17,18.26,50.21,170.78l20.68-29.51q-7.11-37-14.38-73.92a19.74,19.74,0,0,1-9.58,9.34,19.74,19.74,0,0,0,9.58-9.34q7.27,37,14.38,73.92l4.29,21.69L226,352.15a195.63,195.63,0,0,1-9.34-22.95q-15.42-46.36-7.82-104.44Q193.8,239.49,198.53,252a115.47,115.47,0,0,1-30-13.87q-22.11-14.52-25-46.67m65.08,146.82c1.59,2,3.18,4,4.79,5.8a28.62,28.62,0,0,0-8.57,4,28.62,28.62,0,0,1,8.57-4c-1.61-1.83-3.2-3.77-4.79-5.8m-82.49,20.43c.88.8,1.72,1.56,2.52,2.27-.8-.71-1.64-1.47-2.52-2.27M271.69,225.26h-.25q2.82,67.58-11.86,109.24a91.71,91.71,0,0,1-5.3,12.86l75.43,20.69,2.77-17.66,14.38-85.77a65.3,65.3,0,0,0,4.8,7.06,65.3,65.3,0,0,1-4.8-7.06l-14.38,85.77,28.51,27q104-125.47,53.23-169l-73.66-19.42q-1.37,34.08-24.72,49.19a109.26,109.26,0,0,1-31.54,14.38q.22-13.59-12.61-27.25m94.09,127.9q1,7.79-6.3,10.35,7.33-2.58,6.3-10.35m-56.5-68.36a85.64,85.64,0,0,1,14.88,3.53,85.64,85.64,0,0,0-14.88-3.53q-14-2.13-28-4.54,14,2.42,28,4.54m15.64,30a59,59,0,0,1-5.81,28.76,15.38,15.38,0,0,1-2.77,4,15.38,15.38,0,0,0,2.77-4,59,59,0,0,0,5.81-28.76m-25.48-95.36a166,166,0,0,1-27.75,5.8q12.84,13.67,12.61,27.25a109.26,109.26,0,0,0,31.54-14.38q23.36-15.1,24.72-49.19-1.06,15.47-29,26.48A101.12,101.12,0,0,1,299.44,219.46Z" transform="translate(-67.02 -5.56)" style="fill: #c96;stroke: #000;stroke-linecap: round;stroke-linejoin: round;stroke-width: 4px"/>
    <path d="M143.28,186.67l.26,4.79q3,13.88,28.5,24c2.75,1.07,5.52,2.08,8.33,3q-37.4-18.09-15.64-55.24-20.89,10.15-21.45,23.46M328.7,168.75a118.2,118.2,0,0,0-17.15-8.82l-.76-.26q29,34.1-11.35,59.79a101.12,101.12,0,0,0,12.11-4q27.94-11,29-26.48Q340.13,176,328.7,168.75Z" transform="translate(-67.02 -5.56)" style="stroke: #000;stroke-linecap: round;stroke-linejoin: round;stroke-width: 4px"/>
    <path d="M259.58,334.5q14.69-41.67,11.86-109.24-21.54,4.29-31,39.36-6.63-25.83-31.54-39.86-7.59,58.08,7.82,104.44Z" transform="translate(-67.02 -5.56)" style="fill: #fff;stroke: #000;stroke-linecap: round;stroke-linejoin: round;stroke-width: 4px"/>
    <path d="M310.79,159.67h0q-28.56-11.11-69.12-11.1-40.75,0-69.63,11.36-3.94,1.69-7.31,3.28Q143,200.36,180.37,218.45a172.88,172.88,0,0,0,28.5,6.31q24.91,14,31.54,39.86,9.48-35.07,31-39.36h.25a166,166,0,0,0,27.75-5.8Q339.76,193.77,310.79,159.67Z" transform="translate(-67.02 -5.56)" style="fill: #fcebd1;stroke: #000;stroke-linecap: round;stroke-linejoin: round;stroke-width: 4px"/>
    <path d="M315.08,76.42q-31.31-23.2-75.68-23.2-44.19,0-75.68,23.2Q132.54,100,132.44,132.93q.09,33.25,31.28,56.51Q195.22,213,239.4,212.9q44.37.12,75.68-23.46,31.37-23.25,31.28-56.51Q346.45,100,315.08,76.42Z" transform="translate(-67.02 -5.56)" style="fill: #fcebd1;stroke: #000;stroke-linecap: round;stroke-linejoin: round;stroke-width: 4px"/>
    <path id="65569851-0c72-4d58-89fc-5138d713bea0" data-name="Shared Actors Face Regular 0 Layer2 0 1 STROKES" d="M280.52,177.46q-11.1,1.38-42.51,3-14.5,1.38-14.63,8.7.12,10.34,23.08,13.87,13.88,2.28,28-11.6Q289.1,177.33,280.52,177.46Z" transform="translate(-67.02 -5.56)" style="fill: #fff;stroke: #000;stroke-linecap: round;stroke-linejoin: round;stroke-width: 4px"/>
    <path id="417a49dc-4f3a-4b06-8175-63919c141a0c" data-name="Shared Actors Face Regular 0 Layer1 0 1 STROKES" d="M239.27,141.13q-1.72,16.41-12.11,22.33a23.71,23.71,0,0,1,9.59,5.42" transform="translate(-67.02 -5.56)" style="fill: none;stroke: #000;stroke-linecap: round;stroke-linejoin: round;stroke-width: 4px"/>
    <path id="8a314030-6fc3-4eb1-bf9d-81ff37f1e0c4" data-name="dJP Props Glasses   Front Regular 0 Layer0 0 1 STROKES" d="M225.9,109.85q14.19-7.78,31.12-.07M187.44,115,143.92,98.62m191-1.89-39.7,18.91h0" transform="translate(-67.02 -5.56)" style="fill: none;stroke: #000;stroke-linecap: round;stroke-linejoin: round;stroke-width: 4px"/>
    <path d="M295.9,123.6c0,.63-.12,1.25-.22,1.86a20.2,20.2,0,0,1-6.08,11.25,21.42,21.42,0,0,1-28.19,1.46c-.54-.45-1.06-.94-1.58-1.46a22.65,22.65,0,0,1-2.44-2.89c-.19-.27-.37-.53-.55-.81l-.29-.45a20.63,20.63,0,0,1-2.9-10.86,20.23,20.23,0,0,1,3.53-11.85l-.16-.07,0-.06c.86-1,1.78-2,2.78-3a20.71,20.71,0,0,1,29.77,0l.12.12c.13.13.26.25.38.38a25.13,25.13,0,0,1,2.2,2.63l.38.54c.13.2.27.41.39.61a19.5,19.5,0,0,1,2.08,4.67,20.71,20.71,0,0,1,.74,5c0,.32,0,.63,0,1v.12c0,.17,0,.33,0,.49C295.93,122.66,295.93,123.13,295.9,123.6Z" transform="translate(-67.02 -5.56)" style="fill: #fff;stroke: #000;stroke-linecap: round;stroke-linejoin: round;stroke-width: 4px"/>
    <path d="M229,119.46c0,.5.05,1,.05,1.53v.09a22.26,22.26,0,0,1-.15,2.73,21.87,21.87,0,0,1-18.33,18.31,24.37,24.37,0,0,1-5.4,0A20,20,0,0,1,193,136a21.9,21.9,0,0,1-3.74-4.75l-.07-.13a20.18,20.18,0,0,1-2.37-7.48c-.08-.83-.13-1.67-.13-2.52a21.75,21.75,0,0,1,.88-6.06l-.11,0a23,23,0,0,1,5.54-9,20.29,20.29,0,0,1,12.71-6c.71-.07,1.44-.1,2.17-.1s1.48,0,2.19.1a20.28,20.28,0,0,1,12.43,5.71l.31.3.42.43.43.48a21.41,21.41,0,0,1,2.26,2.95,19.84,19.84,0,0,1,3.1,9.6Z" transform="translate(-67.02 -5.56)" style="fill: #fff;stroke: #000;stroke-linecap: round;stroke-linejoin: round;stroke-width: 4px"/>
    <path d="M111.39,91.06Q100.8,89.29,93,97.36q-9.08,9.35-9.59,28-.51,20.94,9.09,31.29,7.83,8.57,18.43,7.06a160.52,160.52,0,0,1,.5-72.65Zm284,32.79Q396.69,88,366.64,87.78a159.27,159.27,0,0,1-.75,72.9h.75Q394.42,156.15,395.43,123.85Z" transform="translate(-67.02 -5.56)" style="fill: #ccc;stroke: #000;stroke-linecap: round;stroke-linejoin: round;stroke-width: 4px"/>
    <path d="M119,125.11A64.53,64.53,0,0,1,119.22,84q-4.23.74-7.83,7.07a160.52,160.52,0,0,0-.5,72.65q11.17,10.44,20.7-1.26-1.59-9.21-2.52-18.67A61.25,61.25,0,0,1,119,125.11ZM366.64,87.78c-.33.17-1.26-.59-2.77-2.27q-6-4.49-13.13-.76,11.61,14.39,13.63,38.85l-16.16-16.9a183.47,183.47,0,0,1-2.52,54q2,5.3,9.34,6.06,7.58.49,10.86-6.06A159.27,159.27,0,0,0,366.64,87.78Z" transform="translate(-67.02 -5.56)" style="fill: #333;stroke: #000;stroke-linecap: round;stroke-linejoin: round;stroke-width: 4px"/>
    <path d="M292.92,32a93.24,93.24,0,0,0-23.23,7.06A93.24,93.24,0,0,1,292.92,32q-26-15.15-61.6-15.14Q194,16.89,167.7,29,159.09,22,150,7.56A42.78,42.78,0,0,0,144,32.78q-19.5-3.9-38.37,6.31Q125,50.7,132.6,60.53A71.44,71.44,0,0,0,119.22,84a64.53,64.53,0,0,0-.25,41.12,61.25,61.25,0,0,0,10.1,18.67,57.45,57.45,0,0,0,25.25,18.42A124.55,124.55,0,0,1,151,120.82q2.78-31,21-34.3,5.81-8.83,22-11.36-16.15,2.53-22,11.36-13.38,20.92-4.8,42.63,6.06,15.14,17.67,23l19.44-48.69A68.62,68.62,0,0,1,221,84.25a68.62,68.62,0,0,0-16.67,19.17q27.06,13.6,34.85,41.87,19.93-19.42,17.92-44.9a32.64,32.64,0,0,0-7.83-17.15,32.64,32.64,0,0,1,7.83,17.15q39.9,6.81,42.16,44.9a51.14,51.14,0,0,0,10.36-23.71q2.81-18.33-5.81-31.53l-4.55-5.8A59,59,0,0,1,331.8,65.32l58.07-8.07q-30.8-22.95-63.12-26.49Q314.89,29.5,292.92,32Z" transform="translate(-67.02 -5.56)" style="fill: #840;stroke: #000;stroke-linecap: round;stroke-linejoin: round;stroke-width: 4px"/>
    <path d="M364.37,123.6q-2-24.46-13.63-38.85A94.67,94.67,0,0,0,331.8,65.32a59,59,0,0,0-32.57,18.93l4.55,5.8a82.1,82.1,0,0,1,11.11,1,105.17,105.17,0,0,1,33.32,15.64Z" transform="translate(-67.02 -5.56)" style="fill: #630;stroke: #000;stroke-linecap: round;stroke-linejoin: round;stroke-width: 4px"/>
  </g>
</svg>
