<svg id="Layer_1" data-name="Layer 1" xmlns="http://www.w3.org/2000/svg" viewBox="0 0 512 512"><rect x="8" y="8" width="496" height="496" rx="40" style="fill:#fff"/><path d="M464,16a32,32,0,0,1,32,32V464a32,32,0,0,1-32,32H48a32,32,0,0,1-32-32V48A32,32,0,0,1,48,16H464m0-16H48A48.14,48.14,0,0,0,0,48V464a48.14,48.14,0,0,0,48,48H464a48.14,48.14,0,0,0,48-48V48A48.14,48.14,0,0,0,464,0Z" style="fill:#466883"/><rect x="223.78" y="425.3" width="67.77" height="15.06" style="fill:none"/><path d="M118.36,440.36h67.77V425.3H163.47c-8.28,0-13.44-6.5-11.48-14.71l9.18-38.36c1.55-6.43,7.12-11.84,13.48-13.84l-12.17-10.14a7.53,7.53,0,0,1,9.64-11.57l9.58,8,4.43-39.84H321.67l4.42,39.84,9.58-8a7.53,7.53,0,0,1,9.64,11.57l-12.15,10.14c6.36,2,11.9,7.34,13.46,13.84l9.18,38.36c1.94,8.13-3.26,14.71-11.48,14.71H329.2v15.06h60.24V289.76H118.36Z" style="fill:none"/><rect x="43.06" y="440.36" width="22.59" height="15.06" style="fill:#466883"/><rect x="442.15" y="440.36" width="22.59" height="15.06" style="fill:#466883"/><rect x="223.78" y="440.36" width="67.77" height="15.06" style="fill:#466883"/><rect x="118.36" y="440.36" width="67.77" height="15.06" style="fill:#466883"/><rect x="329.2" y="440.36" width="60.24" height="15.06" style="fill:#466883"/><rect x="118.36" y="199.4" width="271.08" height="30.12" style="fill:#e1ad99"/><polygon points="223.78 425.3 186.13 425.3 186.13 440.36 186.13 455.42 223.78 455.42 223.78 440.36 223.78 425.3" style="fill:#717187"/><polygon points="329.2 425.3 291.55 425.3 291.55 440.36 291.55 455.42 329.2 455.42 329.2 440.36 329.2 425.3" style="fill:#717187"/><path d="M196.34,357.53H311.46a7.63,7.63,0,0,1,1.62-2l13-10.84-4.42-39.84H186.13l-4.43,39.84,13,10.84A7.48,7.48,0,0,1,196.34,357.53Z" style="fill:#5cc6cf"/><rect x="118.36" y="229.52" width="271.08" height="60.24" style="fill:#fcd2c1"/><path d="M355.8,410.59l-9.18-38.36c-1.56-6.5-7.1-11.87-13.46-13.84l12.15-10.14a7.53,7.53,0,0,0-9.64-11.57l-9.58,8-13,10.84a7.63,7.63,0,0,0-1.62,2H196.34a7.48,7.48,0,0,0-1.63-2l-13-10.84-9.58-8a7.53,7.53,0,0,0-9.64,11.57l12.17,10.14c-6.36,2-11.93,7.41-13.48,13.84L152,410.59c-2,8.21,3.2,14.71,11.48,14.71H344.32C352.54,425.3,357.74,418.72,355.8,410.59Zm-132-7.88H193.66V387.65h30.12ZM284,387.65h30.12v15.06H284Z" style="fill:#e06d3f"/><rect x="284.02" y="387.65" width="30.12" height="15.06" style="fill:#faa233"/><rect x="193.66" y="387.65" width="30.12" height="15.06" style="fill:#faa233"/><polygon points="389.44 199.4 389.44 229.52 389.44 289.76 389.44 440.36 389.44 455.42 442.15 455.42 442.15 440.36 442.15 199.4 389.44 199.4" style="fill:#8a724e"/><polygon points="118.36 289.76 118.36 229.52 118.36 199.4 65.64 199.4 65.64 440.36 65.64 455.42 118.36 455.42 118.36 440.36 118.36 289.76" style="fill:#8a724e"/><path d="M468.47,185.33,257.63,64.85a7.54,7.54,0,0,0-7.47,0L39.32,185.33a7.53,7.53,0,0,0,3.74,14.07H464.74a7.53,7.53,0,0,0,3.73-14.07Z" style="fill:#e06d3f"/></svg>